# AST/ASF file generated using VICON BodyLanguage
# -----------------------------------------------
:version 1.10
:name VICON
:units
  mass 1.0
  length 0.45
  angle deg
:documentation
   .ast/.asf automatically generated from VICON data using
   VICON BodyBuilder and BodyLanguage model FoxedUp or BRILLIANT.MOD
:root
   order TX TY TZ RX RY RZ
   axis XYZ
   position 0 0 0  
   orientation 0 0 0 
:bonedata
  begin
     id 1 
     name lhipjoint
     direction 0.61886 -0.69539 0.365302 
     length 2.20474 
     axis 0 0 0  XYZ
  end
  begin
     id 2 
     name lfemur
     direction 0.34202 -0.939693 0  
     length 6.65149  
     axis 0 0 20  XYZ
    dof rx ry rz
    limits (-160.0 20.0)
           (-70.0 70.0)
           (-60.0 70.0)
  end
  begin
     id 3 
     name ltibia
     direction 0.34202 -0.939693 0   
     length 6.35814   
     axis 0 0 20   XYZ
    dof rx
    limits (-10.0 170.0)
  end
  begin
     id 4 
     name lfoot
     direction 0.101224 -0.278109 0.955201   
     length 2.18766   
     axis -90 7.62852e-016 20   XYZ
    dof rx rz
    limits (-45.0 90.0)
           (-70.0 20.0)
  end
  begin
     id 5 
     name ltoes
     direction 1.53524e-011 -4.21877e-011 1   
     length 1.09206   
     axis -90 7.62852e-016 20   XYZ
    dof rx
    limits (-90.0 20.0)
  end
  begin
     id 6 
     name rhipjoint
     direction -0.600207 -0.708087 0.371972   
     length 2.1652  
     axis 0 0 0  XYZ 
  end
  begin
     id 7 
     name rfemur
     direction -0.34202 -0.939693 0   
     length 6.54691   
     axis 0 0 -20   XYZ
    dof rx ry rz
    limits (-160.0 20.0)
           (-70.0 70.0)
           (-70.0 60.0)
  end
  begin
     id 8 
     name rtibia
     direction -0.34202 -0.939693 0   
     length 6.37474   
     axis 0 0 -20   XYZ
    dof rx
    limits (-10.0 170.0)
 end
 begin
     id 9 
     name rfoot
     direction -0.111266 -0.3057 0.945604   
     length 2.00903  
     axis -90 -7.62852e-016 -20   XYZ
    dof rx rz
    limits (-45.0 90.0)
           (-20.0 70.0)
  end
  begin
     id 10 
     name rtoes
     direction -1.5362e-011 -4.21913e-011 1   
     length 1.00221   
     axis -90 -7.62852e-016 -20   XYZ
    dof rx
    limits (-90.0 20.0)
  end
  begin
     id 11 
     name lowerback
     direction -0.0224561 0.999731 -0.00577314   
     length 2.10409   
     axis 0 0 0   XYZ
    dof rx ry rz
    limits (-20.0 45.0)
           (-30.0 30.0)
           (-30.0 30.0)
  end
  begin
     id 12 
     name upperback
     direction 0.0213126 0.999185 -0.0342817   
     length 2.09783   
     axis 0 0 0   XYZ
    dof rx ry rz
    limits (-20.0 45.0)
           (-30.0 30.0)
           (-30.0 30.0)
  end
  begin
     id 13 
     name thorax
     direction 0.0312356 0.999036 -0.0308451   
     length 2.09788   
     axis 0 0 0   XYZ
    dof rx ry rz
    limits (-20.0 45.0)
           (-30.0 30.0)
           (-30.0 30.0)
  end
  begin
     id 14 
     name lowerneck
     direction -0.0114419 0.996481 0.0830329   
     length 1.38575   
     axis 0 0 0   XYZ
    dof rx ry rz
    limits (-20.0 45.0)
           (-30.0 30.0)
           (-30.0 30.0)
  end
  begin
     id 15 
     name upperneck
     direction -0.0075675 0.996187 -0.0869092   
     length 1.39401   
     axis 0 0 0   XYZ
    dof rx ry rz
    limits (-20.0 45.0)
           (-30.0 30.0)
           (-30.0 30.0)
  end
  begin
     id 16
     name head
     direction -0.00222073 0.999264 -0.0382974  
     length 1.3964  
     axis 0 0 0   XYZ
    dof rx ry rz
    limits (-20.0 45.0)
           (-30.0 30.0)
           (-30.0 30.0)
  end
  begin
     id 17 
     name lclavicle
     direction 0.965962 0.222138 0.132556  
     length 2.81514  
     axis 0 0 0   XYZ
    dof ry rz
    limits (-20.0 10.0)
           (0.0 20.0)
  end
  begin
     id 18 
     name lhumerus
     direction 1 -4.48972e-011 7.03471e-018   
     length 4.47366   
     axis 180 -30 -90   XYZ
    dof rx ry rz
    limits (-60.0 90.0)
           (-90.0 90.0)
           (-90.0 90.0)
  end
  begin
     id 19
     name lradius
     direction 1 -4.48951e-011 -6.22192e-028   
     length 3.19948   
     axis 180 -30 -90   XYZ
    dof rx
    limits (-10.0 170.0)
  end
  begin
     id 20
     name lwrist
     direction 1 -4.48967e-011 -1.24264e-027   
     length 1.59974   
     axis 1.40095e-015 90 90   XYZ
    dof ry
    limits (-180.0 0.0)
 end
  begin
     id 21 
     name lhand
     direction 1 -4.4897e-011 -2.48528e-027   
     length 0.492667   
     axis 1.58582e-015 90 90   XYZ
    dof rx rz
    limits (-90.0 90.0)
           (-45.0 45.0)
  end
  begin
     id 22 
     name lfingers
     direction 1 -4.48996e-011 -4.97056e-027   
     length 0.397201   
     axis 3.17164e-015 90 90   XYZ
    dof rx
    limits (0.0 90.0)
  end
  begin
     id 23
     name lthumb
     direction 0.707107 -6.34981e-011 0.707107   
     length 0.570303   
     axis -90 45 2.85299e-015   XYZ
    dof rx rz
    limits (-45.0 45.0)
           (-45.0 45.0)
  end
  begin
     id 24 
     name rclavicle
     direction -0.961164 0.229034 0.153972   
     length 3.09348  
     axis 0 0 0   XYZ 
    dof ry rz
    limits (-10.0 20.0)
           (-20.0 0.0)
  end
  begin
     id 25 
     name rhumerus
     direction -1 -4.48971e-011 -9.06263e-028  
     length 4.3269   
     axis 180 30 90   XYZ
    dof rx ry rz
    limits (-90.0 60.0)
           (-90.0 90.0)
           (-90.0 90.0)
  end
  begin
     id 26 
     name rradius
     direction -1 -4.48953e-011 1.44659e-027   
     length 3.1896   
     axis 180 30 90   XYZ
    dof rx
    limits (-10.0 170.0)
  end
  begin
     id 27 
     name rwrist
     direction -1 -4.48988e-011 -1.24264e-027   
     length 1.5948   
     axis 1.40095e-015 -90 -90   XYZ
    dof ry
    limits (-180.0 0.0)
  end
  begin
     id 28
     name rhand
     direction -1 -4.49033e-011 -2.48528e-027   
     length 0.464496   
     axis 1.58582e-015 -90 -90   XYZ
    dof rx rz
    limits (-90.0 90.0)
           (-45.0 45.0)
  end
  begin
     id 29
     name rfingers
     direction -1 -4.48905e-011 -4.97056e-027   
     length 0.374489   
     axis 3.17164e-015 -90 -90   XYZ
    dof rx
    limits (0.0 90.0)
  end
  begin
     id 30
     name rthumb
     direction -0.707107 -6.34909e-011 0.707107   
     length 0.537693   
     axis -90 -45 -2.85299e-015   XYZ
    dof rx rz
    limits (-45.0 45.0)
           (-45.0 45.0)
  end
:hierarchy
  begin
    root lhipjoint rhipjoint lowerback
    lhipjoint lfemur
    lfemur ltibia
    ltibia lfoot
    lfoot ltoes
    rhipjoint rfemur
    rfemur rtibia
    rtibia rfoot
    rfoot rtoes
    lowerback upperback
    upperback thorax
    thorax lowerneck lclavicle rclavicle
    lowerneck upperneck
    upperneck head
    lclavicle lhumerus
    lhumerus lradius
    lradius lwrist
    lwrist lhand lthumb
    lhand lfingers
    rclavicle rhumerus
    rhumerus rradius
    rradius rwrist
    rwrist rhand rthumb
    rhand rfingers
  end

#!OML:ASF G:\acrobat\cartwheel_test 2\Patient 1\Session 2\acrobat4.ASF
:FULLY-SPECIFIED
:DEGREES
1391
root 7.36609 28.1376 17.7539 182.989 5.54602 730.144
lowerback -0.160065 -1.13407 -4.0298
upperback -9.03871 -1.31511 5.60459
thorax -9.31617 -0.0135354 8.42569
lowerneck -24.6176 -1.40585 -3.35877
upperneck 0.490812 -0.930658 0.389135
head 3.93339 -0.465923 0.558736
rclavicle 6.95746e-015 -1.21756e-014
rhumerus 98.2614 -24.9065 -64.8526
rradius 20.2485
rwrist 22.8544
rhand -36.1003 -1163.44
rfingers 7.12502
rthumb -9.20661 113.222
lclavicle 6.95746e-015 -1.21756e-014
lhumerus 69.2036 42.6653 27.9585
lradius 31.4502
lwrist 14.6753
lhand -66.8659 -138.339
lfingers 7.12502
lthumb -38.6604 -163.955
rfemur 0.898766 42.6502 -15.7722
rtibia 10.9569
rfoot -69.7934 -40.589
rtoes 31.6482
lfemur 10.7318 -55.3815 5.94727
ltibia 1.0842
lfoot 126.107 -164.921
ltoes 45.7217
1392
root 7.29653 28.1316 17.7475 182.916 5.47545 730.406
lowerback -0.173997 -1.14521 -4.07887
upperback -8.99593 -1.33662 5.56284
thorax -9.25562 -0.027253 8.40613
lowerneck -24.8451 -1.49051 -3.31912
upperneck 0.62415 -1.06033 0.529678
head 3.99076 -0.523412 0.581551
rclavicle -4.4975e-015 4.04527e-014
rhumerus 98.1047 -25.0949 -64.7704
rradius 20.4033
rwrist 22.2633
rhand -36.2907 -1163.38
rfingers 7.12502
rthumb -9.39032 113.149
lclavicle -4.4975e-015 4.04527e-014
lhumerus 71.0412 42.4599 29.9201
lradius 30.8441
lwrist 13.3456
lhand -66.9605 -137.217
lfingers 7.12502
lthumb -38.7496 -162.808
rfemur 0.988395 42.4885 -15.702
rtibia 11.0991
rfoot -69.2923 -40.9499
rtoes 31.2735
lfemur 10.0079 -55.3714 5.49707
ltibia 2.96816
lfoot 126.426 -165.165
ltoes 45.6138
1393
root 7.22652 28.1246 17.7404 182.808 5.38144 730.717
lowerback -0.114404 -1.14662 -4.07784
upperback -9.00725 -1.34159 5.56277
thorax -9.30302 -0.0280889 8.40919
lowerneck -24.7758 -1.60516 -3.40722
upperneck 0.629933 -1.20388 0.646859
head 3.98681 -0.589718 0.618434
rclavicle 1.44616e-014 -3.98563e-014
rhumerus 97.6306 -25.2935 -64.2971
rradius 20.7288
rwrist 21.546
rhand -36.3314 -1163.93
rfingers 7.12502
rthumb -9.42953 113.697
lclavicle 1.44616e-014 -3.98563e-014
lhumerus 73.0796 42.0403 32.2866
lradius 30.1127
lwrist 11.6274
lhand -67.1336 -135.601
lfingers 7.12502
lthumb -38.9129 -161.146
rfemur 1.09227 42.1582 -15.5624
rtibia 11.2788
rfoot -68.3673 -41.6879
rtoes 30.6067
lfemur 9.66527 -55.4098 5.21969
ltibia 3.84807
lfoot 126.155 -165.22
ltoes 45.6828
1394
root 7.15434 28.1217 17.7363 182.707 5.3325 730.986
lowerback 0.0458135 -1.19976 -4.17711
upperback -9.09368 -1.41226 5.6506
thorax -9.48283 -0.0374433 8.58214
lowerneck -24.4107 -1.62017 -3.52928
upperneck 0.505611 -1.20377 0.661749
head 3.91692 -0.588443 0.645383
rclavicle 1.73937e-014 -4.6118e-014
rhumerus 97.2719 -25.1207 -64.1367
rradius 21.0384
rwrist 21.3055
rhand -36.303 -1164.39
rfingers 7.12502
rthumb -9.40217 114.165
lclavicle 1.73937e-014 -4.6118e-014
lhumerus 70.948 42.1415 29.63
lradius 30.6753
lwrist 13.4237
lhand -67.2756 -133.622
lfingers 7.12502
lthumb -39.0467 -159.129
rfemur 1.07134 41.6086 -15.5813
rtibia 11.4835
rfoot -67.1911 -42.614
rtoes 29.8498
lfemur 9.4483 -55.4096 4.95198
ltibia 4.35475
lfoot 125.697 -165.439
ltoes 45.9803
1395
root 7.08214 28.1199 17.7337 182.602 5.30668 731.259
lowerback 0.220788 -1.25506 -4.2812
upperback -9.14319 -1.48692 5.73844
thorax -9.62892 -0.0504922 8.75773
lowerneck -24.2821 -1.59802 -3.60161
upperneck 0.545002 -1.16136 0.741426
head 3.91185 -0.561482 0.686865
rclavicle -4.77083e-015 -1.41137e-014
rhumerus 96.7402 -25.1232 -63.5339
rradius 21.3933
rwrist 20.5792
rhand -36.5198 -1164.8
rfingers 7.12502
rthumb -9.61135 114.565
lclavicle -4.77083e-015 -1.41137e-014
lhumerus 70.6148 42.0763 29.1534
lradius 30.6526
lwrist 13.6137
lhand -67.374 -131.866
lfingers 7.12502
lthumb -39.1394 -157.346
rfemur 1.10527 41.3514 -15.6281
rtibia 11.5568
rfoot -66.5847 -43.2786
rtoes 29.3299
lfemur 9.19476 -55.3883 4.62101
ltibia 5.08041
lfoot 125.389 -165.881
ltoes 46.3407
1396
root 7.00867 28.1163 17.7294 182.487 5.29052 731.551
lowerback 0.360531 -1.23629 -4.37801
upperback -9.12264 -1.47271 5.76654
thorax -9.69189 -0.0330086 8.85098
lowerneck -24.5284 -1.64072 -3.61025
upperneck 0.76558 -1.22108 0.939069
head 4.01843 -0.579733 0.743515
rclavicle 1.87355e-014 -3.00165e-014
rhumerus 96.1166 -25.4689 -62.6754
rradius 21.773
rwrist 19.7128
rhand -36.6849 -1165.02
rfingers 7.12502
rthumb -9.77065 114.771
lclavicle 1.87355e-014 -3.00165e-014
lhumerus 71.6328 41.9183 30.1123
lradius 30.2322
lwrist 12.9377
lhand -67.4826 -132.269
lfingers 7.12502
lthumb -39.2418 -157.719
rfemur 1.32799 41.2498 -15.6656
rtibia 11.2754
rfoot -66.4494 -43.4789
rtoes 29.3297
lfemur 8.68157 -55.359 4.15979
ltibia 6.62146
lfoot 125.423 -166.673
ltoes 46.7203
1397
root 6.93615 28.1041 17.7222 182.387 5.30797 731.77
lowerback 0.487489 -1.23333 -4.55284
upperback -9.11069 -1.48262 5.7943
thorax -9.75223 -0.0200346 8.99129
lowerneck -24.8533 -1.63585 -3.59529
upperneck 1.02596 -1.21862 1.13132
head 4.12899 -0.56529 0.800599
rclavicle 7.55382e-015 -5.62561e-014
rhumerus 95.9678 -25.5151 -62.6675
rradius 21.9675
rwrist 19.7485
rhand -36.5699 -1164.82
rfingers 7.12502
rthumb -9.65974 114.578
lclavicle 7.55382e-015 -5.62561e-014
lhumerus 71.6842 41.9128 29.9037
lradius 30.1039
lwrist 13.0462
lhand -67.6036 -130.195
lfingers 7.12502
lthumb -39.3559 -155.612
rfemur 1.34493 41.0712 -15.8164
rtibia 11.3024
rfoot -66.318 -43.3706
rtoes 29.5907
lfemur 8.63554 -55.2946 3.77772
ltibia 6.95775
lfoot 125.393 -165.649
ltoes 46.0794
